# xmcd
#
# Track frame offsets: 
#        150
#        17425
#        39662
#        57000
#        75475
#        93887
#        115462
#        136550
#        158975
#        180612
#        209200
#
# Disc length: 3082 seconds
#
# Revision: 3
# Processed by: cddbd v1.5.2PL0 Copyright (c) Steve Scherf et al.
# Submitted via: ExactAudioCopy v1.0b4
#
DISCID=870c080b
DTITLE=田震 - 田震 [RS4-CD]
DYEAR=1996
DGENRE=Blues
TTITLE0=野花
TTITLE1=自由自在
TTITLE2=执着（乡摇版）
TTITLE3=你是否和我一样
TTITLE4=怕黑的女人
TTITLE5=回了又去，去了再回
TTITLE6=谁为我停留
TTITLE7=爱情守望者
TTITLE8=猜度
TTITLE9=沙粒，蚂蚁
TTITLE10=阳光下的田震
EXTD=YEAR: 1996
EXTT0=
EXTT1=
EXTT2=
EXTT3=
EXTT4=
EXTT5=
EXTT6=
EXTT7=
EXTT8=
EXTT9=
EXTT10=
PLAYORDER=
